<?xml version="1.0" encoding="utf-8"?>
<!-- Generator: Adobe Illustrator 25.2.3, SVG Export Plug-In . SVG Version: 6.00 Build 0)  -->
<svg version="1.1" xmlns="http://www.w3.org/2000/svg" xmlns:xlink="http://www.w3.org/1999/xlink" x="0px" y="0px"
	 viewBox="0 0 50 50" style="enable-background:new 0 0 50 50;" xml:space="preserve">
<style type="text/css">
	.st0{display:none;}
	.st1{display:inline;}
	.st2{fill-rule:evenodd;clip-rule:evenodd;fill:#75C6CA;}
	.st3{display:inline;fill:#75C6CA;}
	.st4{fill:#75C6CA;}
</style>
<g id="Livello_1" class="st0">
	<g class="st1">
		<path id="Fill-4" class="st2" d="M25,47.9L25,47.9l9.2-26.5H15.9L25,47.9L25,47.9z"/>
		<path id="Fill-8" class="st2" d="M25,47.9l-9.2-26.5H3L25,47.9z"/>
		<path id="Fill-12" class="st2" d="M3,21.4L3,21.4l-2.8,8.1c-0.3,0.7,0,1.5,0.7,2L25,47.9L3,21.4z"/>
		<path id="Fill-16" class="st2" d="M2.9,21.6h12.9l-5.5-16c-0.3-0.8-1.5-0.8-1.8,0L2.9,21.6z"/>
		<path id="Fill-18" class="st2" d="M25,47.9l9.2-26.5h12.9L25,47.9z"/>
		<path id="Fill-20" class="st2" d="M47.1,21.4L47.1,21.4l2.8,8.1c0.3,0.7,0,1.5-0.7,2L25,47.9L47.1,21.4z"/>
		<path id="Fill-22" class="st2" d="M47.1,21.5H34.3l5.5-16c0.3-0.8,1.5-0.8,1.8,0L47.1,21.5z"/>
	</g>
</g>
<g id="Livello_2" class="st0">
	<path class="st3" d="M45.4,1.9H4.8c-2.5,0-4.5,1.9-4.5,4.2v38.1c0,2.3,2,4.2,4.5,4.2h40.5c2.5,0,4.5-1.9,4.5-4.2V6.1
		C49.9,3.8,47.9,1.9,45.4,1.9z M15.7,42.1c0,0.7-0.6,1.2-1.3,1.2H8.8c-0.7,0-1.3-0.5-1.3-1.2V20.2c0-0.7,0.6-1.2,1.3-1.2h5.5
		c0.7,0,1.3,0.5,1.3,1.2V42.1z M11.6,16.9c-2.9,0-5.3-2.2-5.3-5s2.4-5,5.3-5s5.3,2.2,5.3,5S14.5,16.9,11.6,16.9z M44.7,42.2
		c0,0.6-0.5,1.1-1.2,1.1h-6c-0.7,0-1.2-0.5-1.2-1.1V31.9c0-1.5,0.5-6.7-4.3-6.7c-3.7,0-4.4,3.5-4.6,5.1v11.8c0,0.6-0.5,1.1-1.2,1.1
		h-5.8c-0.7,0-1.2-0.5-1.2-1.1v-22c0-0.6,0.5-1.1,1.2-1.1h5.8c0.7,0,1.2,0.5,1.2,1.1V22c1.4-1.9,3.4-3.4,7.7-3.4
		c9.5,0,9.5,8.4,9.5,13L44.7,42.2L44.7,42.2z"/>
</g>
<g id="Livello_3">
	<g>
		<g transform="translate(0.000000,511.000000) scale(0.100000,-0.100000)">
			<path class="st4" d="M227.2,5099c-31.3-2.6-61.5-11.3-89.4-25.2c-40.7-20.5-70.9-47.8-96.1-86.2c-18.1-27.5-30.4-58.6-36.5-92.3
				c-4-21.7-3.8-64.5,0.2-85.5c16.7-87.1,74.9-157.7,155.4-187.9c13.2-5,18.4-5.2,22.9-0.7c3.1,3.1,3.5,5.7,3.5,26.6v22.9h-22.1
				c-19.1,0-23.5,0.5-30.4,3.8c-13.7,6.3-22.9,16.3-31.6,34.4c-7.7,16-17.4,28-29.4,36.5c-12,8.5-2.6,15.1,14.4,10.3
				c7.5-2.3,11.6-4.9,19.1-12.7c5.2-5.4,12.3-13.6,15.6-18.3c3.8-5.4,9.6-10.4,15.6-13.9c8.3-4.7,11.1-5.4,22.6-5.2
				c7.1,0.2,16,1.4,19.6,2.6c6.1,2.3,7,3.7,10.4,13.9c2.1,6.1,5.6,13.6,7.8,16.3l4,5l-17.9,3.8c-32.2,6.8-50.4,16.2-66.9,34.4
				c-17,18.6-26.6,47.6-26.6,81c0,26.1,5,42.8,18.6,61.2l5.9,8.2l-2.1,10.6c-3.7,18.9,1.4,52.5,8.3,55.1c7.3,2.8,36.9-8,56.7-20.7
				l8.2-5.2l16.2,3.1c22.3,4.5,70.4,4.7,92.7,0.2l15.8-3.3l15.3,8.9c17,9.7,32.7,15.5,44.2,16.2l7.8,0.5l3.3-8.7
				c4.3-11.1,5.9-35.8,3-47.5l-2.1-8.9l7.8-11.8c13.9-21.2,16-28.9,16-58.8c-0.2-21.9-0.7-28.3-4-40c-9.7-33.9-30.4-56-63.3-68
				c-4.2-1.6-15.5-4.5-25.4-6.6l-17.9-3.8l3.8-4.7c2.1-2.8,5.4-9,7.3-13.9c3.5-8.2,3.8-13.2,4.3-54.2c0.3-30.3,1.2-45.9,2.6-47.5
				c5.9-7.3,14.1-5.9,42.2,7.5c33.9,15.8,68.8,44.5,92,75.4c21.6,28.5,38.9,68.8,45.4,104.5c4,22.1,4,61.4,0,83.4
				c-10.1,55.8-41.2,110.2-83.6,145.8C359,5083.7,293.3,5104.9,227.2,5099z"/>
		</g>
	</g>
</g>
</svg>
