<?xml version="1.0" encoding="utf-8"?>
<!-- Generator: Adobe Illustrator 25.2.3, SVG Export Plug-In . SVG Version: 6.00 Build 0)  -->
<svg version="1.1" id="Livello_1" xmlns="http://www.w3.org/2000/svg" xmlns:xlink="http://www.w3.org/1999/xlink" x="0px" y="0px"
	 viewBox="0 0 50 50" style="enable-background:new 0 0 50 50;" xml:space="preserve">
<style type="text/css">
	.st0{fill-rule:evenodd;clip-rule:evenodd;fill:#75C6CA;}
</style>
<g>
	<path id="Fill-4" class="st0" d="M25,47.9L25,47.9l9.2-26.5H15.9L25,47.9L25,47.9z"/>
	<path id="Fill-8" class="st0" d="M25,47.9l-9.2-26.5H3L25,47.9z"/>
	<path id="Fill-12" class="st0" d="M3,21.4L3,21.4l-2.8,8.1c-0.3,0.7,0,1.5,0.7,2L25,47.9L3,21.4z"/>
	<path id="Fill-16" class="st0" d="M2.9,21.6h12.9l-5.5-16c-0.3-0.8-1.5-0.8-1.8,0L2.9,21.6z"/>
	<path id="Fill-18" class="st0" d="M25,47.9l9.2-26.5h12.9L25,47.9z"/>
	<path id="Fill-20" class="st0" d="M47.1,21.4L47.1,21.4l2.8,8.1c0.3,0.7,0,1.5-0.7,2L25,47.9L47.1,21.4z"/>
	<path id="Fill-22" class="st0" d="M47.1,21.5H34.3l5.5-16c0.3-0.8,1.5-0.8,1.8,0L47.1,21.5z"/>
</g>
</svg>
