<?xml version="1.0" encoding="utf-8"?>
<!-- Generator: Adobe Illustrator 25.2.3, SVG Export Plug-In . SVG Version: 6.00 Build 0)  -->
<svg version="1.1" xmlns="http://www.w3.org/2000/svg" xmlns:xlink="http://www.w3.org/1999/xlink" x="0px" y="0px"
	 viewBox="0 0 50 50" style="enable-background:new 0 0 50 50;" xml:space="preserve">
<style type="text/css">
	.st0{display:none;}
	.st1{display:inline;}
	.st2{fill-rule:evenodd;clip-rule:evenodd;fill:#75C6CA;}
	.st3{fill:#75C6CA;}
</style>
<g id="Livello_1" class="st0">
	<g class="st1">
		<path id="Fill-4" class="st2" d="M25,47.9L25,47.9l9.2-26.5H15.9L25,47.9L25,47.9z"/>
		<path id="Fill-8" class="st2" d="M25,47.9l-9.2-26.5H3L25,47.9z"/>
		<path id="Fill-12" class="st2" d="M3,21.4L3,21.4l-2.8,8.1c-0.3,0.7,0,1.5,0.7,2L25,47.9L3,21.4z"/>
		<path id="Fill-16" class="st2" d="M2.9,21.6h12.9l-5.5-16c-0.3-0.8-1.5-0.8-1.8,0L2.9,21.6z"/>
		<path id="Fill-18" class="st2" d="M25,47.9l9.2-26.5h12.9L25,47.9z"/>
		<path id="Fill-20" class="st2" d="M47.1,21.4L47.1,21.4l2.8,8.1c0.3,0.7,0,1.5-0.7,2L25,47.9L47.1,21.4z"/>
		<path id="Fill-22" class="st2" d="M47.1,21.5H34.3l5.5-16c0.3-0.8,1.5-0.8,1.8,0L47.1,21.5z"/>
	</g>
</g>
<g id="Livello_2">
	<path class="st3" d="M45.4,1.9H4.8c-2.5,0-4.5,1.9-4.5,4.2v38.1c0,2.3,2,4.2,4.5,4.2h40.5c2.5,0,4.5-1.9,4.5-4.2V6.1
		C49.9,3.8,47.9,1.9,45.4,1.9z M15.7,42.1c0,0.7-0.6,1.2-1.3,1.2H8.8c-0.7,0-1.3-0.5-1.3-1.2V20.2c0-0.7,0.6-1.2,1.3-1.2h5.5
		c0.7,0,1.3,0.5,1.3,1.2V42.1z M11.6,16.9c-2.9,0-5.3-2.2-5.3-5s2.4-5,5.3-5s5.3,2.2,5.3,5S14.5,16.9,11.6,16.9z M44.7,42.2
		c0,0.6-0.5,1.1-1.2,1.1h-6c-0.7,0-1.2-0.5-1.2-1.1V31.9c0-1.5,0.5-6.7-4.3-6.7c-3.7,0-4.4,3.5-4.6,5.1v11.8c0,0.6-0.5,1.1-1.2,1.1
		h-5.8c-0.7,0-1.2-0.5-1.2-1.1v-22c0-0.6,0.5-1.1,1.2-1.1h5.8c0.7,0,1.2,0.5,1.2,1.1V22c1.4-1.9,3.4-3.4,7.7-3.4
		c9.5,0,9.5,8.4,9.5,13L44.7,42.2L44.7,42.2z"/>
</g>
</svg>
