<?xml version="1.0" encoding="utf-8"?>
<!-- Generator: Adobe Illustrator 24.3.0, SVG Export Plug-In . SVG Version: 6.00 Build 0)  -->
<svg version="1.1" id="Livello_1" xmlns="http://www.w3.org/2000/svg" xmlns:xlink="http://www.w3.org/1999/xlink" x="0px" y="0px"
	 viewBox="0 0 512 512" style="enable-background:new 0 0 512 512;" xml:space="preserve">
<style type="text/css">
	.st0{fill:#6EBE95;}
</style>
<path class="st0" d="M170.6,441.8c-8.1,0-16-3.2-21.9-9.1l-76-75.8c-8.8-8.8-13.7-20.5-13.7-33s4.9-24.2,13.7-33l76-75.8
	c8.9-8.9,22.2-11.5,33.9-6.7c11.6,4.8,19.2,16.1,19.2,28.7v71.3c123.2,0,223.4-100.2,223.4-223.4V60.1c0-8.6,6.9-15.5,15.5-15.5
	c8.6,0,15.5,6.9,15.5,15.5V85c0,68-26.5,131.9-74.5,179.9c-48.1,48.1-111.9,74.5-179.9,74.5c-17.1,0-31-13.9-31-31v-71.3
	c0,0,0,0,0,0c0,0-0.1,0-0.1,0c0,0,0,0,0,0l-76,75.8c-2.9,2.9-4.6,6.8-4.6,11c0,4.2,1.6,8.1,4.6,11l76,75.8l0,0c0,0,0.1,0,0.1,0
	c0,0,0,0,0,0v-17c0-8.6,6.9-15.5,15.5-15.5c8.6,0,15.5,6.9,15.5,15.5v17c0,12.6-7.5,23.9-19.2,28.7
	C178.6,441,174.6,441.8,170.6,441.8z"/>
</svg>
