<?xml version="1.0" encoding="utf-8"?>
<!-- Generator: Adobe Illustrator 25.2.3, SVG Export Plug-In . SVG Version: 6.00 Build 0)  -->
<svg version="1.1" id="Capa_1" xmlns="http://www.w3.org/2000/svg" xmlns:xlink="http://www.w3.org/1999/xlink" x="0px" y="0px"
	 viewBox="0 0 970.5 970.5" style="enable-background:new 0 0 970.5 970.5;" xml:space="preserve">
<style type="text/css">
	.st0{fill:#FFFFFF;}
</style>
<g>
	<path class="st0" d="M120,962.8c26.6,0,53.5-8.8,75.7-27l288.1-234.7l290.9,237c22.3,18.1,49.1,27,75.7,27
		c34.8,0,69.4-15.1,93.1-44.2c41.9-51.4,34.1-127-17.2-168.8L559.6,453.3c-44.1-36-107.5-36-151.6,0L44.2,749.8
		c-51.4,41.8-59.1,117.4-17.3,168.8C50.7,947.7,85.2,962.8,120,962.8z"/>
	<path class="st0" d="M120,541.9c26.6,0,53.5-8.8,75.7-27l288.1-234.7l290.9,237c22.3,18.1,49.1,27,75.7,27
		c34.8,0,69.4-15.1,93.1-44.2c41.9-51.4,34.1-127-17.2-168.8L559.6,32.4c-44.1-36-107.5-36-151.6,0L44.2,328.8
		c-51.4,41.9-59.1,117.5-17.3,168.9C50.7,526.8,85.2,541.9,120,541.9z"/>
</g>
</svg>
